HIERARCHY
ROOT Hips
{
	OFFSET 0.00000 0.00000 0.00000
	CHANNELS 6 Xposition Yposition Zposition Zrotation Yrotation Xrotation 
	JOINT LHipJoint
	{
		OFFSET 0 0 0
		CHANNELS 3 Zrotation Yrotation Xrotation
		JOINT LeftUpLeg
		{
			OFFSET 1.53794 -1.55850 0.93568
			CHANNELS 3 Zrotation Yrotation Xrotation
			JOINT LeftLeg
			{
				OFFSET 2.28545 -6.27922 0.00000
				CHANNELS 3 Zrotation Yrotation Xrotation
				JOINT LeftFoot
				{
					OFFSET 2.37329 -6.52057 0.00000
					CHANNELS 3 Zrotation Yrotation Xrotation
					JOINT LeftToeBase
					{
						OFFSET 0.14846 -0.40788 2.09160
						CHANNELS 3 Zrotation Yrotation Xrotation
						End Site
						{
							OFFSET 0.00000 -0.00000 1.07536
						}
					}
				}
			}
		}
	}
	JOINT RHipJoint
	{
		OFFSET 0 0 0
		CHANNELS 3 Zrotation Yrotation Xrotation
		JOINT RightUpLeg
		{
			OFFSET -1.78290 -1.55850 0.93568
			CHANNELS 3 Zrotation Yrotation Xrotation
			JOINT RightLeg
			{
				OFFSET -2.24144 -6.15831 0.00000
				CHANNELS 3 Zrotation Yrotation Xrotation
				JOINT RightFoot
				{
					OFFSET -2.35091 -6.45907 0.00000
					CHANNELS 3 Zrotation Yrotation Xrotation
					JOINT RightToeBase
					{
						OFFSET -0.14428 -0.39641 2.07944
						CHANNELS 3 Zrotation Yrotation Xrotation
						End Site
						{
							OFFSET -0.00000 -0.00000 1.06864
						}
					}
				}
			}
		}
	}
	JOINT LowerBack
	{
		OFFSET 0 0 0
		CHANNELS 3 Zrotation Yrotation Xrotation
		JOINT Spine
		{
			OFFSET -0.08841 2.11430 -0.15818
			CHANNELS 3 Zrotation Yrotation Xrotation
			JOINT Spine1
			{
				OFFSET -0.00033 2.12605 -0.08097
				CHANNELS 3 Zrotation Yrotation Xrotation
				JOINT Neck
				{
					OFFSET 0 0 0
					CHANNELS 3 Zrotation Yrotation Xrotation
					JOINT Neck1
					{
						OFFSET 0.04431 1.59447 0.43193
						CHANNELS 3 Zrotation Yrotation Xrotation
						JOINT Head
						{
							OFFSET 0.00455 1.62017 -0.58852
							CHANNELS 3 Zrotation Yrotation Xrotation
							End Site
							{
								OFFSET -0.00920 1.72955 -0.25850
							}
						}
					}
				}
				JOINT LeftShoulder
				{
					OFFSET 0 0 0
					CHANNELS 3 Zrotation Yrotation Xrotation
					JOINT LeftArm
					{
						OFFSET 2.86490 1.49927 -0.33774
						CHANNELS 3 Zrotation Yrotation Xrotation
						JOINT LeftForeArm
						{
							OFFSET 4.87408 -0.00000 0.00000
							CHANNELS 3 Zrotation Yrotation Xrotation
							JOINT LeftHand
							{
								OFFSET 2.76729 -0.00000 0.00000
								CHANNELS 3 Zrotation Yrotation Xrotation
								JOINT LeftFingerBase
								{
									OFFSET 0 0 0
									CHANNELS 3 Zrotation Yrotation Xrotation
									JOINT LeftHandIndex1
									{
										OFFSET 0.98922 -0.00000 0.00000
										CHANNELS 3 Zrotation Yrotation Xrotation
										End Site
										{
											OFFSET 0.79753 -0.00000 0.00000
										}
									}
								}
								JOINT LThumb
								{
									OFFSET 0 0 0
									CHANNELS 3 Zrotation Yrotation Xrotation
									End Site
									{
										OFFSET 0.80972 -0.00000 0.80972
									}
								}
							}
						}
					}
				}
				JOINT RightShoulder
				{
					OFFSET 0 0 0
					CHANNELS 3 Zrotation Yrotation Xrotation
					JOINT RightArm
					{
						OFFSET -2.94414 1.45463 -0.25291
						CHANNELS 3 Zrotation Yrotation Xrotation
						JOINT RightForeArm
						{
							OFFSET -4.71404 -0.00000 0.00000
							CHANNELS 3 Zrotation Yrotation Xrotation
							JOINT RightHand
							{
								OFFSET -2.83468 -0.00000 0.00000
								CHANNELS 3 Zrotation Yrotation Xrotation
								JOINT RightFingerBase
								{
									OFFSET 0 0 0
									CHANNELS 3 Zrotation Yrotation Xrotation
									JOINT RightHandIndex1
									{
										OFFSET -0.86820 -0.00000 0.00000
										CHANNELS 3 Zrotation Yrotation Xrotation
										End Site
										{
											OFFSET -0.69996 -0.00000 0.00000
										}
									}
								}
								JOINT RThumb
								{
									OFFSET 0 0 0
									CHANNELS 3 Zrotation Yrotation Xrotation
									End Site
									{
										OFFSET -0.71065 -0.00000 0.71065
									}
								}
							}
						}
					}
				}
			}
		}
	}
}
MOTION
Frames: 13
Frame Time: .0083333
2.5280 14.8889 -3.7013 174.2590 -23.7566 -174.1900 0.0000 0.0000 0.0000 -8.9928 -4.2550 -3.9938 19.8005 19.9990 89.4167 -0.2682 13.7985 6.0024 0.0285 1.0906 2.9980 0.0000 0.0000 0.0000 -1.6204 18.5627 -47.5411 -10.6526 -17.7608 61.6481 -0.2104 -4.6783 8.2971 -2.0505 8.9705 -25.7032 -8.6672 -5.8080 5.3128 0.0306 -8.3027 3.3683 5.0469 -4.4149 1.7761 -1.9442 1.9358 -30.1374 1.6109 -2.4919 46.0682 -0.1848 -2.5308 28.0094 -0.0000 0.0000 0.0000 -42.7667 33.7756 66.6863 94.9476 -59.9073 -64.2834 -0.0000 -0.0000 21.1657 18.2042 2.6822 0.8817 -7.1250 0.0000 -0.0000 -6.7977 32.7509 2.0520 -0.0000 0.0000 0.0000 82.5813 -40.3501 17.4944 -62.1892 56.8656 -36.1685 0.0000 0.0000 1.7957 -12.1912 -6.1119 1.3177 7.1250 -0.0000 -0.0000 12.1557 -36.0009 2.7394
2.5555 14.7583 -3.8935 175.4030 -23.1079 -175.4770 0.0000 0.0000 0.0000 -8.4473 -4.4948 -5.6891 20.9545 19.9781 92.7918 -0.4386 14.8393 4.3972 0.0306 1.1286 3.1028 0.0000 0.0000 0.0000 -0.0260 19.1865 -47.7375 -11.4944 -18.1687 64.3771 -0.1766 -3.7386 7.5230 -2.1484 9.1685 -26.3239 -7.7318 -5.3645 6.8363 0.1703 -7.8436 3.9620 4.8275 -4.1997 1.3686 -1.9149 1.6996 -30.6918 1.5309 -2.3849 45.4835 -0.1463 -2.3839 27.4900 -0.0000 0.0000 0.0000 -46.3545 32.4318 64.2976 90.8278 -59.9974 -60.7169 -0.0000 -0.0000 20.6646 18.3701 3.8486 1.2769 -7.1250 0.0000 -0.0000 -6.7767 33.9755 1.8436 -0.0000 0.0000 0.0000 83.2124 -36.1150 18.7072 -59.5421 56.1867 -33.9604 0.0000 0.0000 2.0630 -12.9563 -6.8692 1.5762 7.1250 -0.0000 -0.0000 11.6573 -36.8029 2.3904
2.5781 14.6372 -4.0800 176.4140 -22.5542 -176.4960 0.0000 0.0000 0.0000 -8.0900 -4.9455 -7.7316 22.0583 19.8981 96.0278 -0.6112 15.8564 2.7176 0.0298 1.1145 3.0640 0.0000 0.0000 0.0000 1.3901 19.6735 -47.8440 -12.2410 -18.4907 66.7506 -0.1359 -2.8274 6.5595 -2.2637 9.3951 -27.0391 -6.8438 -4.9915 8.0660 0.2849 -7.4409 4.5328 4.5564 -4.0200 1.1247 -1.8364 1.4793 -31.2230 1.4127 -2.2883 44.8925 -0.1483 -2.2407 26.9798 0.0000 0.0000 0.0000 -49.6627 30.6845 62.2198 86.5958 -59.9562 -57.0523 -0.0000 -0.0000 19.8782 18.5796 5.1956 1.7435 -7.1250 0.0000 -0.0000 -6.7495 35.3933 1.6021 0.0000 0.0000 0.0000 83.6856 -31.6655 20.1786 -56.7577 55.3822 -31.6577 0.0000 0.0000 2.4919 -13.6840 -7.6436 1.8549 7.1250 -0.0000 -0.0000 11.1892 -37.6271 2.0618
2.5983 14.5235 -4.2644 177.2050 -22.1838 -177.1130 0.0000 0.0000 0.0000 -7.9907 -5.7190 -10.2410 23.1038 19.7674 99.1089 -0.7748 16.8069 1.0744 0.0245 1.0104 2.7775 0.0000 0.0000 0.0000 2.5090 19.9489 -48.0505 -12.9156 -18.7515 68.8630 -0.0908 -2.0064 5.3496 -2.3764 9.6097 -27.7219 -6.1028 -4.7130 8.8971 0.3583 -7.1264 5.0120 4.2751 -3.8851 1.0415 -1.6798 1.2941 -31.6717 1.2635 -2.2269 44.3403 -0.2019 -2.1119 26.5053 0.0000 -0.0000 0.0000 -52.5814 28.6348 60.5319 82.4112 -59.7813 -53.4328 -0.0000 -0.0000 19.0013 18.7783 6.5076 2.2068 -7.1250 0.0000 -0.0000 -6.7405 36.7767 1.3711 0.0000 -0.0000 0.0000 84.0358 -27.1518 21.7660 -54.0595 54.5071 -29.4487 0.0000 0.0000 3.0143 -13.9450 -8.2819 2.0484 7.1250 -0.0000 -0.0000 11.0871 -38.2883 1.8597
2.6171 14.4147 -4.4487 177.7550 -22.0348 -177.3060 0.0000 0.0000 0.0000 -8.1547 -6.8505 -13.2266 24.0793 19.5963 102.0048 -0.9227 17.6679 -0.4394 0.0177 0.8580 2.3581 0.0000 0.0000 0.0000 3.3017 19.9925 -48.4481 -13.5405 -18.9687 70.7963 -0.0488 -1.3224 3.9225 -2.4812 9.8037 -28.3434 -5.5329 -4.5330 9.3549 0.3863 -6.9083 5.3351 4.0093 -3.7897 1.0345 -1.5004 1.1362 -32.0110 1.1350 -2.2301 43.8739 -0.2759 -2.0183 26.1071 -0.0000 0.0000 0.0000 -55.0872 26.4331 59.2505 78.4218 -59.4874 -49.9903 -0.0000 -0.0000 18.2979 18.9115 7.5521 2.5781 -7.1250 0.0000 -0.0000 -6.7641 37.8783 1.1925 -0.0000 0.0000 0.0000 84.2782 -22.7676 23.3460 -51.6402 53.6360 -27.4896 0.0000 0.0000 3.6054 -13.4620 -8.5133 2.0296 7.1250 -0.0000 -0.0000 11.5392 -38.4871 1.8807
2.6352 14.3093 -4.6325 178.0970 -22.0758 -177.1530 0.0000 0.0000 0.0000 -8.5236 -8.3006 -16.5922 24.9665 19.3980 104.6624 -1.0518 18.4236 -1.7882 0.0107 0.6684 1.8368 0.0000 0.0000 0.0000 3.8200 19.8665 -49.0122 -14.1282 -19.1525 72.5956 -0.0169 -0.8181 2.3059 -2.5768 9.9762 -28.8996 -5.1376 -4.4243 9.5454 0.3878 -6.7605 5.4954 3.7959 -3.7184 1.0334 -1.3616 0.9874 -32.2303 1.0830 -2.3185 43.5112 -0.3311 -1.9720 25.7944 -0.0000 0.0000 0.0000 -57.2315 24.1934 58.3375 74.7852 -59.1070 -46.8631 -0.0000 -0.0000 17.9902 18.9654 8.1724 2.7967 -7.1250 0.0000 -0.0000 -6.8042 38.5312 1.0901 -0.0000 0.0000 0.0000 84.4124 -18.7065 25.1148 -49.6485 52.8527 -25.8937 0.0000 0.0000 4.5814 -13.1178 -8.5014 1.9731 7.1250 -0.0000 -0.0000 11.8277 -38.4505 1.9401
2.6519 14.2064 -4.8150 178.3190 -22.2483 -176.7950 0.0000 0.0000 0.0000 -8.9785 -9.9814 -20.1724 25.7452 19.1895 107.0190 -1.1623 19.0746 -2.9599 0.0045 0.4352 1.1958 0.0000 0.0000 0.0000 4.2009 19.6407 -49.6430 -14.6839 -19.3085 74.2826 -0.0007 -0.4806 0.5470 -2.6598 10.1228 -29.3752 -4.8473 -4.3542 9.6152 0.3921 -6.6476 5.5119 3.6411 -3.6533 0.9666 -1.2974 0.8231 -32.4067 1.1042 -2.4826 43.2396 -0.3593 -1.9699 25.5784 -0.0000 0.0000 0.0000 -59.0826 21.9873 57.7557 71.6197 -58.6842 -44.1525 -0.0000 -0.0000 18.2070 18.9707 8.3164 2.8464 -7.1250 0.0000 -0.0000 -6.8202 38.6824 1.0672 -0.0000 0.0000 0.0000 84.4184 -15.0636 27.0262 -48.2980 52.2856 -24.8213 0.0000 0.0000 5.6947 -12.8753 -8.2664 1.8823 7.1250 -0.0000 -0.0000 11.9859 -38.1979 2.0426
2.6661 14.1062 -4.9955 178.5290 -22.4747 -176.3710 0.0000 0.0000 0.0000 -9.3875 -11.7988 -23.8207 26.4008 18.9879 109.0235 -1.2589 19.6424 -4.0370 0.0010 0.2007 0.5513 0.0000 0.0000 0.0000 4.5924 19.4087 -50.2436 -15.2102 -19.4408 75.8689 -0.0034 -0.3098 -1.2578 -2.7335 10.2506 -29.7920 -4.5593 -4.2836 9.6880 0.4222 -6.5209 5.4097 3.5205 -3.5705 0.7778 -1.3432 0.6211 -32.5425 1.2123 -2.7276 43.0386 -0.3455 -2.0144 25.4343 0.0000 -0.0000 0.0000 -60.6763 19.8636 57.5173 69.0428 -58.2736 -41.9557 -0.0000 -0.0000 18.9332 18.9686 8.0729 2.7635 -7.1250 0.0000 -0.0000 -6.7873 38.4273 1.1047 0.0000 -0.0000 0.0000 84.2847 -11.9129 29.1001 -47.6767 52.0144 -24.3307 0.0000 0.0000 6.9322 -13.0454 -7.9666 1.8393 7.1250 -0.0000 -0.0000 11.7851 -37.9093 2.0922
2.6768 14.0078 -5.1731 178.7590 -22.6555 -175.9870 0.0000 0.0000 0.0000 -9.7243 -13.6291 -27.3823 26.9252 18.8090 110.6424 -1.3485 20.1680 -5.1164 0.0001 -0.0574 -0.1576 0.0000 0.0000 0.0000 5.0508 19.2719 -50.7440 -15.7175 -19.5545 77.3889 -0.0233 -0.3219 -3.0213 -2.7926 10.3515 -30.1228 -4.2311 -4.1602 9.8703 0.4580 -6.3182 5.2196 3.3934 -3.4409 0.4282 -1.4832 0.3618 -32.6541 1.3972 -3.0696 42.8738 -0.3016 -2.1038 25.3318 -0.0000 0.0000 0.0000 -61.9953 17.8572 57.6729 67.1388 -57.9301 -40.3392 -0.0000 -0.0000 19.9800 19.0300 7.5801 2.6051 -7.1250 0.0000 -0.0000 -6.6673 37.9155 1.1691 -0.0000 0.0000 0.0000 84.0340 -9.2775 31.2314 -47.8319 52.0828 -24.4531 0.0000 0.0000 8.1817 -13.5358 -7.6960 1.8465 7.1250 -0.0000 -0.0000 11.3230 -37.6702 2.0750
2.6850 13.9101 -5.3470 178.9900 -22.7320 -175.7270 0.0000 0.0000 0.0000 -10.0091 -15.4088 -30.7393 27.3143 18.6657 111.8537 -1.4344 20.6784 -6.2303 0.0027 -0.3359 -0.9231 0.0000 0.0000 0.0000 5.5904 19.2824 -51.0863 -16.2092 -19.6519 78.8543 -0.0547 -0.5606 -4.6584 -2.8274 10.4102 -30.3156 -3.9002 -3.9549 10.2341 0.4796 -6.0134 4.9981 3.2578 -3.2581 -0.0609 -1.6801 0.0491 -32.7866 1.6451 -3.5037 42.7247 -0.2401 -2.2271 25.2684 -0.0000 -0.0000 0.0000 -63.0558 15.9755 58.1961 65.9676 -57.7011 -39.3480 -0.0000 -0.0000 21.1453 19.1985 7.0105 2.4335 -7.1250 0.0000 -0.0000 -6.4501 37.3293 1.2237 -0.0000 -0.0000 0.0000 83.6561 -7.0364 33.2857 -48.7012 52.4581 -25.1406 0.0000 0.0000 9.2209 -14.0067 -7.4182 1.8447 7.1250 -0.0000 -0.0000 10.8786 -37.4208 2.0587
2.6914 13.8105 -5.5165 179.2170 -22.6200 -175.5810 0.0000 0.0000 0.0000 -10.2244 -17.0376 -33.9048 27.5855 18.5604 112.7033 -1.5212 21.2085 -7.4335 0.0098 -0.6380 -1.7532 0.0000 0.0000 0.0000 6.2008 19.5043 -51.3230 -16.7044 -19.7376 80.3238 -0.0902 -1.0561 -6.1633 -2.8349 10.4229 -30.3573 -3.5830 -3.6467 10.7602 0.4632 -5.5806 4.7687 3.0872 -3.0120 -0.6553 -1.9173 -0.3163 -32.9502 1.9596 -4.0316 42.5702 -0.1620 -2.3788 25.2297 0.0000 -0.0000 0.0000 -63.8587 14.2291 59.0483 65.5265 -57.6112 -38.9753 -0.0000 -0.0000 22.1801 19.4734 6.4958 2.2907 -7.1250 0.0000 -0.0000 -6.1553 36.8050 1.2466 0.0000 -0.0000 0.0000 83.1675 -5.0754 35.1490 -50.1051 53.0378 -26.2581 0.0000 0.0000 10.1269 -14.3080 -7.0347 1.7891 7.1250 -0.0000 -0.0000 10.5605 -37.0518 2.0936
2.6964 13.7276 -5.6845 179.4960 -22.3165 -175.5550 0.0000 0.0000 0.0000 -10.3127 -18.4588 -36.8043 27.7068 18.5119 113.0848 -1.6120 21.7844 -8.6572 0.0213 -0.9413 -2.5874 0.0000 0.0000 0.0000 6.9996 19.9270 -51.3035 -17.1611 -19.8057 81.6737 -0.1250 -1.8305 -7.6142 -2.8155 10.3903 -30.2500 -3.2367 -3.2557 11.3962 0.4097 -5.0411 4.5606 2.8478 -2.7160 -1.2954 -2.1493 -0.7081 -33.1330 2.3344 -4.6346 42.3994 -0.0738 -2.5451 25.1999 -0.0000 0.0000 0.0000 -64.4297 12.6300 60.1247 65.7888 -57.6649 -39.1969 -0.0000 -0.0000 22.9461 19.8038 6.1130 2.1960 -7.1250 0.0000 -0.0000 -5.8340 36.4205 1.2360 -0.0000 0.0000 0.0000 82.5942 -3.2609 36.7501 -51.8865 53.7286 -27.6880 0.0000 0.0000 10.9558 -14.2131 -6.5260 1.6489 7.1250 -0.0000 -0.0000 10.5548 -36.5310 2.2289
2.7006 13.6315 -5.8492 179.8550 -21.8457 -175.6170 0.0000 0.0000 0.0000 -10.1458 -19.6625 -39.6516 27.7622 18.4894 113.2593 -1.7086 22.4151 -9.9515 0.0360 -1.2254 -3.3692 0.0000 0.0000 0.0000 7.9386 20.5507 -51.2333 -17.6279 -19.8646 83.0494 -0.1566 -2.8206 -9.0671 -2.7730 10.3181 -30.0132 -2.8335 -2.8209 12.0711 0.3275 -4.4405 4.3937 2.5255 -2.3954 -1.9160 -2.3508 -1.0998 -33.3754 2.7390 -5.2652 42.2130 0.0154 -2.7082 25.1924 0.0000 -0.0000 0.0000 -64.8317 11.1686 61.2663 66.6555 -57.8372 -39.9298 -0.0000 -0.0000 23.4524 20.1310 5.9024 2.1587 -7.1250 0.0000 -0.0000 -5.5372 36.2160 1.2004 0.0000 -0.0000 0.0000 81.9766 -1.4394 37.9614 -53.7947 54.4159 -29.2333 0.0000 0.0000 11.6249 -13.4443 -5.5371 1.3214 7.1250 -0.0000 -0.0000 11.0297 -35.4903 2.6171
